<svg xmlns="http://www.w3.org/2000/svg" xmlns:xlink="http://www.w3.org/1999/xlink" version="1.1" width="256" height="256" viewBox="0 0 256 256" xml:space="preserve">
<desc>Created with Fabric.js 1.7.22</desc>
<defs>
</defs>
<g transform="translate(128 128) scale(0.87 0.87)" style="">
	<g style="stroke: none; stroke-width: 0; stroke-dasharray: none; stroke-linecap: butt; stroke-linejoin: miter; stroke-miterlimit: 10; fill: none; fill-rule: nonzero; opacity: 1;" transform="translate(-144.89999999999998 -144.90000000000003) scale(3.22 3.22)" >
	<path d="M 10.168 89 h 18.673 c 1.113 0 2.015 -0.902 2.015 -2.015 V 48.922 c 0 -1.113 -0.902 -2.015 -2.015 -2.015 H 10.168 V 89 z" style="stroke: none; stroke-width: 1; stroke-dasharray: none; stroke-linecap: butt; stroke-linejoin: miter; stroke-miterlimit: 10; fill: rgb(80,123,214); fill-rule: nonzero; opacity: 1;" transform=" matrix(1 0 0 1 0 0) " stroke-linecap="round" />
	<path d="M 74.566 57.405 c 2.908 0 5.266 -2.358 5.266 -5.266 s -2.358 -5.266 -5.266 -5.266 h -16.69 c 2.905 -5.231 2.993 -21.12 -3.9 -23.028 c -1.305 -0.361 -2.6 0.636 -2.747 1.982 c -1.211 11.15 -8.034 25.01 -14.97 25.412 h -5.403 v 33.235 h 2.803 c 1.509 0 2.95 0.514 4.208 1.347 c 3.14 2.08 8.429 3.297 13.498 3.169 h 2.451 V 89 h 16.839 c 2.908 0 5.266 -2.358 5.266 -5.266 c 0 -2.908 -2.358 -5.266 -5.266 -5.266 h 2.347 c 2.908 0 5.266 -2.358 5.266 -5.266 s -2.358 -5.266 -5.266 -5.266 h 1.565 c 2.908 0 5.266 -2.358 5.266 -5.266 S 77.474 57.405 74.566 57.405 z" style="stroke: none; stroke-width: 1; stroke-dasharray: none; stroke-linecap: butt; stroke-linejoin: miter; stroke-miterlimit: 10; fill: rgb(251,206,157); fill-rule: nonzero; opacity: 1;" transform=" matrix(1 0 0 1 0 0) " stroke-linecap="round" />
	<path d="M 28.841 90 H 10.168 c -0.552 0 -1 -0.447 -1 -1 V 46.907 c 0 -0.553 0.448 -1 1 -1 h 18.673 c 1.662 0 3.015 1.353 3.015 3.015 v 38.063 C 31.856 88.647 30.503 90 28.841 90 z M 11.168 88 h 17.673 c 0.56 0 1.015 -0.455 1.015 -1.015 V 48.922 c 0 -0.56 -0.455 -1.015 -1.015 -1.015 H 11.168 V 88 z" style="stroke: none; stroke-width: 1; stroke-dasharray: none; stroke-linecap: butt; stroke-linejoin: miter; stroke-miterlimit: 10; fill: rgb(0,0,0); fill-rule: nonzero; opacity: 1;" transform=" matrix(1 0 0 1 0 0) " stroke-linecap="round" />
	<path d="M 50.632 90 c -5.04 0 -10.209 -1.286 -13.317 -3.345 c -1.166 -0.772 -2.43 -1.181 -3.655 -1.181 h -2.803 c -0.552 0 -1 -0.447 -1 -1 V 51.239 c 0 -0.553 0.448 -1 1 -1 h 5.403 c 6.104 -0.354 12.809 -13.78 13.976 -24.52 c 0.106 -0.977 0.633 -1.852 1.444 -2.403 c 0.762 -0.518 1.699 -0.674 2.563 -0.436 c 2.094 0.58 3.794 2.301 4.916 4.978 c 2.214 5.279 1.917 13.471 0.257 18.014 h 15.15 c 3.455 0 6.266 2.812 6.266 6.267 c 0 2.206 -1.146 4.148 -2.873 5.266 c 1.728 1.117 2.873 3.06 2.873 5.266 c 0 2.573 -1.56 4.789 -3.782 5.752 c 1.355 1.15 2.218 2.866 2.218 4.779 c 0 2.78 -1.82 5.144 -4.331 5.961 c 1.221 1.145 1.984 2.771 1.984 4.571 c 0 3.455 -2.811 6.266 -6.266 6.266 H 53.815 c -0.045 0 -0.09 -0.003 -0.133 -0.009 h -2.318 C 51.121 89.997 50.876 90 50.632 90 z M 31.856 83.475 h 1.803 c 1.619 0 3.265 0.523 4.76 1.513 c 2.94 1.948 7.999 3.124 12.92 3.004 h 2.477 c 0.045 0 0.09 0.003 0.133 0.009 h 16.706 c 2.353 0 4.266 -1.913 4.266 -4.266 s -1.913 -4.266 -4.266 -4.266 c -0.553 0 -1 -0.447 -1 -1 s 0.447 -1 1 -1 h 2.347 c 2.353 0 4.266 -1.914 4.266 -4.267 s -1.913 -4.266 -4.266 -4.266 c -0.553 0 -1 -0.447 -1 -1 s 0.447 -1 1 -1 h 1.564 c 2.353 0 4.266 -1.913 4.266 -4.266 s -1.913 -4.266 -4.266 -4.266 c -0.553 0 -1 -0.447 -1 -1 s 0.447 -1 1 -1 c 2.353 0 4.266 -1.913 4.266 -4.266 s -1.913 -4.267 -4.266 -4.267 H 57.876 c -0.354 0 -0.682 -0.188 -0.861 -0.493 c -0.181 -0.305 -0.185 -0.683 -0.013 -0.992 c 1.989 -3.583 2.523 -12.479 0.313 -17.755 c -0.89 -2.121 -2.103 -3.407 -3.605 -3.823 c -0.415 -0.113 -0.745 0.053 -0.906 0.163 c -0.32 0.218 -0.537 0.578 -0.579 0.964 c -1.284 11.812 -8.512 25.874 -15.907 26.302 l -4.461 0.002 V 83.475 z" style="stroke: none; stroke-width: 1; stroke-dasharray: none; stroke-linecap: butt; stroke-linejoin: miter; stroke-miterlimit: 10; fill: rgb(0,0,0); fill-rule: nonzero; opacity: 1;" transform=" matrix(1 0 0 1 0 0) " stroke-linecap="round" />
	<path d="M 74.565 58.405 h -9.01 c -0.553 0 -1 -0.447 -1 -1 s 0.447 -1 1 -1 h 9.01 c 0.553 0 1 0.447 1 1 S 75.118 58.405 74.565 58.405 z" style="stroke: none; stroke-width: 1; stroke-dasharray: none; stroke-linecap: butt; stroke-linejoin: miter; stroke-miterlimit: 10; fill: rgb(0,0,0); fill-rule: nonzero; opacity: 1;" transform=" matrix(1 0 0 1 0 0) " stroke-linecap="round" />
	<path d="M 73.001 68.937 h -7.445 c -0.553 0 -1 -0.447 -1 -1 s 0.447 -1 1 -1 h 7.445 c 0.553 0 1 0.447 1 1 S 73.554 68.937 73.001 68.937 z" style="stroke: none; stroke-width: 1; stroke-dasharray: none; stroke-linecap: butt; stroke-linejoin: miter; stroke-miterlimit: 10; fill: rgb(0,0,0); fill-rule: nonzero; opacity: 1;" transform=" matrix(1 0 0 1 0 0) " stroke-linecap="round" />
	<path d="M 70.654 79.469 h -5.099 c -0.553 0 -1 -0.447 -1 -1 s 0.447 -1 1 -1 h 5.099 c 0.553 0 1 0.447 1 1 S 71.207 79.469 70.654 79.469 z" style="stroke: none; stroke-width: 1; stroke-dasharray: none; stroke-linecap: butt; stroke-linejoin: miter; stroke-miterlimit: 10; fill: rgb(0,0,0); fill-rule: nonzero; opacity: 1;" transform=" matrix(1 0 0 1 0 0) " stroke-linecap="round" />
	<path d="M 53.482 16.149 c -0.553 0 -1 -0.448 -1 -1 V 1 c 0 -0.552 0.447 -1 1 -1 s 1 0.448 1 1 v 14.149 C 54.482 15.702 54.035 16.149 53.482 16.149 z" style="stroke: none; stroke-width: 1; stroke-dasharray: none; stroke-linecap: butt; stroke-linejoin: miter; stroke-miterlimit: 10; fill: rgb(0,0,0); fill-rule: nonzero; opacity: 1;" transform=" matrix(1 0 0 1 0 0) " stroke-linecap="round" />
	<path d="M 38.841 22.006 c -0.274 0 -0.546 -0.111 -0.744 -0.331 l -8.785 -9.757 c -0.37 -0.41 -0.336 -1.042 0.074 -1.412 c 0.41 -0.37 1.044 -0.336 1.412 0.074 l 8.785 9.757 c 0.37 0.41 0.336 1.042 -0.074 1.412 C 39.319 21.921 39.08 22.006 38.841 22.006 z" style="stroke: none; stroke-width: 1; stroke-dasharray: none; stroke-linecap: butt; stroke-linejoin: miter; stroke-miterlimit: 10; fill: rgb(0,0,0); fill-rule: nonzero; opacity: 1;" transform=" matrix(1 0 0 1 0 0) " stroke-linecap="round" />
	<path d="M 68.123 22.006 c -0.238 0 -0.478 -0.085 -0.669 -0.257 c -0.41 -0.37 -0.443 -1.002 -0.074 -1.412 l 8.785 -9.757 c 0.37 -0.41 1.002 -0.443 1.412 -0.074 c 0.41 0.37 0.443 1.002 0.074 1.412 l -8.785 9.757 C 68.669 21.894 68.396 22.006 68.123 22.006 z" style="stroke: none; stroke-width: 1; stroke-dasharray: none; stroke-linecap: butt; stroke-linejoin: miter; stroke-miterlimit: 10; fill: rgb(0,0,0); fill-rule: nonzero; opacity: 1;" transform=" matrix(1 0 0 1 0 0) " stroke-linecap="round" />
	<path d="M 23.299 82.396 h -2.787 c -0.552 0 -1 -0.447 -1 -1 s 0.448 -1 1 -1 h 2.787 c 0.552 0 1 0.447 1 1 S 23.851 82.396 23.299 82.396 z" style="stroke: none; stroke-width: 1; stroke-dasharray: none; stroke-linecap: butt; stroke-linejoin: miter; stroke-miterlimit: 10; fill: rgb(0,0,0); fill-rule: nonzero; opacity: 1;" transform=" matrix(1 0 0 1 0 0) " stroke-linecap="round" />
</g>
</g>
</svg>